<svg width="456" height="195" viewBox="0 0 456 195" fill="none" xmlns="http://www.w3.org/2000/svg">
<g filter="url(#filter0_d_94_722)">
<path d="M215.876 241.557L276.848 227.036L262.327 166.064L201.354 180.585L215.876 241.557Z" fill="#F9E050"/>
<path d="M90.179 112.181L151.151 97.6594L140.531 53.0677L79.5591 67.5889L90.179 112.181Z" fill="#F4F464"/>
<path d="M145.767 146.382L206.739 131.861L192.218 70.8889L131.246 85.4101L145.767 146.382ZM11.1121 178.452L56.0071 167.76L45.3149 122.865L0.419908 133.557L11.1121 178.452ZM111.55 201.909L156.445 191.217L145.752 146.322L100.857 157.014L111.55 201.909Z" fill="#F4F464"/>
<path d="M183.8 106.874L244.772 92.3529L230.323 31.6839L169.351 46.2051L183.8 106.874Z" fill="#F6842D"/>
<path d="M239.112 141.143L300.085 126.622L285.564 65.6497L224.591 80.1709L239.112 141.143Z" fill="#F4AC2B"/>
<path d="M249.782 185.946L310.755 171.425L296.234 110.452L235.261 124.974L249.782 185.946Z" fill="#F6842D"/>
<path d="M260.497 230.93L321.469 216.409L306.948 155.437L245.976 169.958L260.497 230.93Z" fill="#F4AC2B"/>
<path d="M214.275 35.5069L224.895 80.0986L269.486 69.4786L312.241 248.998L267.346 259.69L278.038 304.585L398.375 275.926C416.454 271.62 431.615 265.829 443.791 258.538C455.981 251.308 465.06 241.516 471.098 229.18C477.135 216.843 480.182 201.372 480.117 182.795C480.067 164.28 476.789 141.5 470.331 114.381C463.814 87.019 456.615 65.2693 448.717 49.1995C440.716 32.8336 431.449 20.8404 420.922 13.25C410.385 5.29222 397.582 0.906784 384.379 0.732641C370.62 0.162902 354.564 2.06343 336.273 6.41979L258.829 24.8638L214.275 35.5069ZM314.436 50.5353L343.466 43.6215C353.476 41.2374 362.426 40.3239 370.195 40.9099C378.243 41.2365 385.837 44.7273 391.325 50.623C397.658 56.4874 403.328 65.4907 408.403 77.649C413.752 89.7422 418.9 106.243 423.884 127.173C428.855 148.043 431.666 165.229 432.431 178.67C433.411 191.803 432.436 202.518 429.515 210.842C426.814 218.53 421.598 225.082 414.709 229.434C407.985 233.504 399.766 236.68 389.968 239.013L360.968 245.92L314.436 50.5353Z" fill="#F14D34"/>
<path d="M190.662 135.69L235.557 124.998L224.865 80.1027L179.97 90.7949L190.662 135.69Z" fill="#F9E050"/>
<path d="M135.075 101.489L179.97 90.7969L169.35 46.2053L124.455 56.8975L135.075 101.489Z" fill="#F9E050"/>
</g>
<defs>
<filter id="filter0_d_94_722" x="-8.57071" y="0.633789" width="497.68" height="378.863" filterUnits="userSpaceOnUse" color-interpolation-filters="sRGB">
<feFlood flood-opacity="0" result="BackgroundImageFix"/>
<feColorMatrix in="SourceAlpha" type="matrix" values="0 0 0 0 0 0 0 0 0 0 0 0 0 0 0 0 0 0 127 0" result="hardAlpha"/>
<feOffset dy="23.2258"/>
<feGaussianBlur stdDeviation="4.49532"/>
<feColorMatrix type="matrix" values="0 0 0 0 0 0 0 0 0 0.0495833 0 0 0 0 0.145833 0 0 0 0.25 0"/>
<feBlend mode="normal" in2="BackgroundImageFix" result="effect1_dropShadow_94_722"/>
<feBlend mode="normal" in="SourceGraphic" in2="effect1_dropShadow_94_722" result="shape"/>
</filter>
</defs>
</svg>
